<?xml version="1.0" standalone="no"?>
<!DOCTYPE svg PUBLIC "-//W3C//DTD SVG 20010904//EN"
 "http://www.w3.org/TR/2001/REC-SVG-20010904/DTD/svg10.dtd">
<svg version="1.0" xmlns="http://www.w3.org/2000/svg"
 width="508.000000pt" height="508.000000pt" viewBox="0 0 508.000000 508.000000"
 preserveAspectRatio="xMidYMid meet">
<metadata>
Created by potrace 1.14, written by Peter Selinger 2001-2017
</metadata>
<g transform="translate(0.000000,508.000000) scale(0.100000,-0.100000)"
fill="#000000" stroke="none">
<path d="M0 2540 l0 -2540 2540 0 2540 0 0 2540 0 2540 -2540 0 -2540 0 0
-2540z m2659 2219 c712 -51 1323 -429 1691 -1046 266 -447 371 -778 371 -1173
0 -484 -185 -953 -524 -1330 -150 -167 -277 -271 -537 -442 -217 -142 -227
-148 -341 -204 -277 -136 -581 -205 -904 -205 -344 0 -652 73 -963 230 -827
415 -1273 1315 -1105 2231 29 161 83 385 118 490 39 117 139 328 205 435 325
521 869 882 1490 990 79 14 156 21 335 33 11 1 85 -3 164 -9z"/>
<path d="M2365 4729 c-280 -15 -556 -89 -821 -219 -219 -108 -382 -226 -564
-409 -204 -206 -350 -427 -446 -679 -13 -34 -24 -66 -24 -70 0 -4 28 44 63
105 268 482 677 812 1247 1005 256 86 422 117 681 125 210 7 346 -5 534 -44
335 -70 661 -224 919 -434 150 -123 146 -120 99 -64 -23 28 -61 68 -85 91
-457 427 -993 625 -1603 593z"/>
<path d="M2510 4549 c335 -20 589 -86 864 -226 277 -141 492 -316 689 -563
283 -352 457 -836 457 -1267 0 -323 -70 -635 -205 -921 -63 -133 -51 -131 22
3 290 526 353 1090 187 1645 -83 276 -211 486 -430 705 -421 421 -955 639
-1553 634 l-176 -2 145 -8z"/>
<path d="M2200 4509 c-588 -61 -1107 -380 -1452 -895 -412 -617 -422 -1450
-24 -2103 325 -532 909 -896 1576 -982 144 -19 395 -17 526 4 446 70 853 274
1156 579 132 134 227 278 321 488 127 288 181 540 180 850 -1 309 -57 563
-187 848 -230 501 -646 892 -1160 1089 -284 108 -628 153 -936 122z m337 -604
c70 -28 108 -106 122 -245 27 -262 -50 -586 -220 -924 l-89 -178 0 -194 c0
-141 3 -194 12 -194 22 0 143 72 203 121 76 62 159 158 205 240 28 51 41 65
63 67 21 3 29 -2 38 -22 10 -22 7 -34 -32 -102 -77 -134 -228 -278 -364 -346
-33 -17 -61 -32 -63 -33 -2 -1 20 -34 49 -71 209 -275 259 -741 95 -892 -77
-71 -168 -64 -218 18 -48 78 -59 144 -68 404 -10 281 5 1743 20 1896 28 297
69 419 154 456 40 17 48 17 93 -1z"/>
<path d="M2452 3806 c-51 -66 -80 -302 -88 -736 l-6 -305 21 33 c50 78 129
302 161 453 40 195 46 434 12 520 -24 61 -67 76 -100 35z"/>
<path d="M2350 1778 c1 -431 30 -608 100 -608 28 0 67 37 84 80 60 150 31 402
-69 600 -38 75 -91 150 -105 150 -6 0 -10 -82 -10 -222z"/>
<path d="M1018 3985 c-76 -68 -201 -204 -268 -290 -162 -210 -308 -530 -344
-755 -20 -125 -28 -336 -17 -430 l8 -75 2 115 c5 437 162 876 439 1224 31 39
102 117 159 174 56 56 100 102 98 102 -2 0 -37 -29 -77 -65z"/>
<path d="M4611 3024 c0 -11 3 -14 6 -6 3 7 2 16 -1 19 -3 4 -6 -2 -5 -13z"/>
<path d="M4621 2995 c-1 -5 6 -59 14 -120 34 -258 8 -566 -72 -835 -68 -229
-181 -457 -333 -670 -56 -78 -258 -317 -305 -360 -15 -14 -37 -38 -48 -55
l-22 -30 47 34 c137 99 336 311 448 479 282 422 393 923 310 1407 -17 97 -38
178 -39 150z"/>
<path d="M349 2425 c-10 -36 10 -237 37 -370 78 -397 254 -735 536 -1030 613
-642 1601 -824 2393 -440 139 67 212 113 112 71 -176 -76 -431 -139 -657 -163
-269 -29 -613 1 -876 76 -598 170 -1113 615 -1361 1176 -88 198 -138 382 -167
610 -7 50 -14 81 -17 70z"/>
<path d="M3837 955 c-66 -58 -245 -172 -369 -235 -65 -34 -118 -63 -118 -65 0
-9 104 35 206 87 113 56 204 121 279 197 57 58 57 66 2 16z"/>
</g>
</svg>
