<?xml version="1.0" standalone="no"?>
<!DOCTYPE svg PUBLIC "-//W3C//DTD SVG 20010904//EN"
 "http://www.w3.org/TR/2001/REC-SVG-20010904/DTD/svg10.dtd">
<svg version="1.0" xmlns="http://www.w3.org/2000/svg"
 width="100.000000pt" height="100.000000pt" viewBox="0 0 100.000000 100.000000"
 preserveAspectRatio="xMidYMid meet">
<metadata>
Created by potrace 1.14, written by Peter Selinger 2001-2017
</metadata>
<g transform="translate(0.000000,100.000000) scale(0.100000,-0.100000)"
fill="#000000" stroke="none">
<path d="M358 930 c-123 -46 -209 -124 -266 -240 -36 -73 -37 -78 -37 -190 0
-112 1 -117 37 -190 44 -90 114 -165 195 -207 81 -43 149 -56 250 -50 71 4 96
10 156 41 113 56 186 135 227 243 28 73 30 85 31 158 3 199 -132 381 -325 439
-66 20 -210 17 -268 -4z m157 -320 c0 -249 0 -251 22 -266 15 -9 23 -24 23
-44 0 -26 -22 -60 -39 -60 -4 0 -7 -29 -6 -65 1 -55 -1 -65 -15 -65 -14 0 -17
10 -16 57 1 46 -3 61 -21 81 -30 32 -30 77 0 96 22 15 22 17 22 266 -1 219 1
250 15 250 13 0 15 -31 15 -250z m-249 170 c0 -20 -6 -30 -16 -30 -10 0 -16
10 -16 30 -1 22 3 30 16 30 13 0 17 -8 16 -30z m499 -28 c1 -28 8 -49 23 -65
28 -30 28 -64 0 -94 -19 -21 -22 -34 -22 -140 -1 -99 -4 -118 -17 -121 -14 -3
-16 13 -15 120 2 117 1 124 -21 141 -30 24 -30 67 1 96 18 17 23 31 21 59 -3
42 2 55 18 49 7 -2 12 -22 12 -45z m-499 -124 c-1 -54 2 -66 21 -81 29 -24 30
-64 1 -94 -20 -22 -23 -35 -23 -126 0 -84 -3 -102 -16 -105 -13 -2 -15 13 -15
108 0 102 -1 111 -22 126 -30 20 -29 67 1 91 19 15 22 27 21 78 -1 72 3 90 21
75 7 -6 12 -34 11 -72z m499 -389 c0 -23 -5 -35 -15 -37 -12 -2 -16 6 -14 35
2 47 1 46 16 41 7 -3 13 -20 13 -39z"/>
</g>
</svg>
